Coordinates
version=1
nRows=16
nColumns=33
inDegrees=yes

Units are S.I. units (second, meters, Newtons, ...)
Angles are in degrees.

endheader
time	ground_thorax_rot_x	ground_thorax_rot_y	ground_thorax_rot_z	ground_thorax_tx	ground_thorax_ty	ground_thorax_tz	clav_prot_r	clav_elev_r	scapula_abduction_r	scapula_elevation_r	scapula_upward_rot_r	scapula_winging_r	shoulder_elv_r	plane_of_elev_r	axial_rot_r	elbow_flexion_r	pro_sup_r	wrist_flex_r	wrist_dev_r	clav_prot_l	clav_elev_l	scapula_abduction_l	scapula_elevation_l	scapula_upward_rot_l	scapula_winging_l	shoulder_elv_l	plane_of_elev_l	axial_rot_l	elbow_flexion_l	pro_sup_l	wrist_flex_l	wrist_dev_l
      7.13000000	    -32.17672456	    -24.85860280	     29.90576501	    -90.79136015	    842.62837916	    -50.10892129	     26.69622265	    -45.00000000	     39.08747982	    -45.00000000	    -45.00000000	   1692.58413218	   4755.68271162	     21.01868790	   -148.59296991	   2517.93119722	    154.46175298	     15.69774003	     14.49142980	     -1.56229384	     32.42060247	    -30.43453105	    -45.00000000	    -45.00000000	   3326.57975980	  -3882.66143146	     27.75490161	     53.43025093	   1070.74847706	     45.64926885	     11.59682351	    -24.12204282
      7.14000000	    -32.31482502	    -24.66247860	     29.71661430	    -89.50155352	    842.75299769	    -50.22469697	     26.60659768	    -45.00000000	     38.72005526	    -45.00000000	    -45.00000000	   1692.69132932	   4755.73275236	     21.28953631	   -148.91254044	   2517.92973873	    154.38504168	     15.69501234	     14.48901867	     -1.34663311	     32.44087670	    -30.75329411	    -45.00000000	    -45.00000000	   3326.66764062	  -3882.72087929	     27.94827105	     53.78032093	   1070.85688869	     45.69427079	     11.63238602	    -24.41351260
      7.15000000	    -32.24764304	    -24.81227413	     29.84739664	    -88.15323287	    842.88052398	    -50.32915400	     26.61208353	    -45.00000000	     38.79323953	    -45.00000000	    -45.00000000	   1692.76641356	   4755.67486043	     21.37325910	   -149.25784878	   2517.91274296	    154.32454792	     15.67217873	     14.53562356	     -1.36789290	     32.42661545	    -30.74292645	    -45.00000000	    -45.00000000	   3326.63640367	  -3882.57336374	     28.03447881	     54.13673882	   1070.86892911	     45.82617461	     11.72260655	    -24.37053214
      7.16000000	    -32.13220425	    -24.96687786	     30.04409455	    -86.74712002	    843.01043672	    -50.42069187	     26.62468316	    -45.00000000	     38.91312023	    -45.00000000	    -45.00000000	   1692.83258175	   4755.69965115	     21.41404987	   -149.60454639	   2517.89244991	    154.27320625	     15.65200809	     14.57539321	     -1.42125865	     32.41820053	    -30.82925756	    -45.00000000	    -45.00000000	   3326.61061687	  -3882.48798137	     28.03475659	     54.59773980	   1070.90819752	     45.85244262	     11.83156260	    -24.33946383
      7.17000000	    -32.10846667	    -25.07132283	     30.13111670	    -85.28182117	    843.14069836	    -50.49877759	     26.62364780	    -45.00000000	     38.91276762	    -45.00000000	    -45.00000000	   1692.97001643	   4755.64435848	     21.48007206	   -149.99684868	   2517.87124873	    154.22949559	     15.63578260	     14.61650779	     -1.31073739	     32.44000236	    -30.92953477	    -45.00000000	    -45.00000000	   3326.63343759	  -3882.39662999	     28.13255356	     54.94759818	   1070.90266532	     45.85090442	     11.94693216	    -24.31121571
      7.18000000	    -32.04435559	    -25.19489475	     30.25185766	    -83.76038018	    843.26783551	    -50.56331885	     26.59640966	    -45.00000000	     38.97858107	    -45.00000000	    -45.00000000	   1693.07527171	   4755.63901330	     21.56830688	   -150.35816660	   2517.85895348	    154.20678530	     15.62073564	     14.64748068	     -1.27399542	     32.44026478	    -31.04519529	    -45.00000000	    -45.00000000	   3326.62967588	  -3882.31560080	     28.18334721	     55.41260498	   1070.87375743	     45.80460915	     12.09107078	    -24.26275240
      7.19000000	    -31.95566059	    -25.34367405	     30.41976757	    -82.18253301	    843.38779322	    -50.61481555	     26.65387117	    -45.00000000	     39.06658591	    -45.00000000	    -45.00000000	   1693.16444427	   4755.63689993	     21.64872526	   -150.73965961	   2517.84433722	    154.20542004	     15.59688309	     14.70117049	     -1.27484216	     32.44205957	    -31.13479600	    -45.00000000	    -45.00000000	   3326.63200898	  -3882.23111483	     28.23654777	     55.85867674	   1070.87450855	     45.71928434	     12.24456154	    -24.19779122
      7.20000000	    -31.90707219	    -25.46962462	     30.54849445	    -80.55197115	    843.49655159	    -50.65347665	     26.65773176	    -45.00000000	     39.11405123	    -45.00000000	    -45.00000000	   1693.30050425	   4755.59583693	     21.71565225	   -151.12366377	   2517.83765098	    154.22927938	     15.57466871	     14.75297574	     -1.18530883	     32.45793571	    -31.23745097	    -45.00000000	    -45.00000000	   3326.64079681	  -3882.13931474	     28.33328389	     56.26761167	   1070.84292331	     45.61907278	     12.40909946	    -24.10900426
      7.21000000	    -31.86343920	    -25.59750277	     30.67626758	    -78.87078261	    843.59104463	    -50.67937365	     26.61681688	    -45.00000000	     39.15087955	    -45.00000000	    -45.00000000	   1693.45512201	   4755.55395147	     21.77335859	   -151.53739018	   2517.81159644	    154.27804517	     15.56572775	     14.80133650	     -1.05198593	     32.47715257	    -31.38180290	    -45.00000000	    -45.00000000	   3326.67544342	  -3882.04776853	     28.41229756	     56.70379390	   1070.81505949	     45.48270222	     12.58125097	    -24.00319308
      7.22000000	    -31.88368411	    -25.63785310	     30.72380772	    -77.14175224	    843.66893859	    -50.69197748	     26.20467710	    -45.00000000	     39.04341848	    -45.00000000	    -45.00000000	   1693.82972704	   4755.59140402	     21.67574596	   -152.22354951	   2517.75570944	    154.36412697	     15.56927352	     14.86049374	     -0.55927591	     32.58785208	    -31.71460077	    -45.00000000	    -45.00000000	   3326.75894959	  -3882.09065396	     28.44551860	     57.08310636	   1070.84678057	     45.31185226	     12.74411062	    -23.84409536
      7.23000000	    -31.74670051	    -25.83317305	     30.99026641	    -75.36629156	    843.72904731	    -50.69073099	     26.48520406	    -45.00000000	     39.21594714	    -45.00000000	    -45.00000000	   1693.80878513	   4755.49421671	     21.80287606	   -152.40954466	   2517.77525048	    154.50705336	     15.55038331	     14.90658280	     -0.71533785	     32.54809047	    -31.71836562	    -45.00000000	    -45.00000000	   3326.70599558	  -3881.93352924	     28.55320892	     57.61853179	   1070.75656639	     45.13746849	     12.94478255	    -23.71504152
      7.24000000	    -31.64157491	    -25.98612508	     31.18283810	    -73.54244587	    843.76902990	    -50.67460123	     26.32717064	    -45.00000000	     39.21953795	    -45.00000000	    -45.00000000	   1694.02730749	   4755.52399885	     21.81209055	   -152.91360665	   2517.77945929	    154.64150563	     15.52286427	     14.97302126	     -0.52715387	     32.58537158	    -31.80021329	    -45.00000000	    -45.00000000	   3326.69938195	  -3881.88039848	     28.63649287	     58.05151009	   1070.76834173	     44.95378258	     13.14425912	    -23.52647501
      7.25000000	    -31.48289309	    -26.23419799	     31.47383069	    -71.67053502	    843.78653407	    -50.64277716	     26.59665866	    -45.00000000	     39.36975053	    -45.00000000	    -45.00000000	   1693.97109989	   4755.45735563	     22.03922197	   -153.11111817	   2517.80059883	    154.79539241	     15.49039176	     15.01981976	     -0.77284175	     32.51888608	    -31.80990490	    -45.00000000	    -45.00000000	   3326.68220994	  -3881.70205864	     28.68310709	     58.60689562	   1070.69287758	     44.78959326	     13.34478459	    -23.36866676
      7.26000000	    -31.29389455	    -26.47083121	     31.79465382	    -69.74648801	    843.77768926	    -50.59354415	     26.67114080	    -45.00000000	     39.47244895	    -45.00000000	    -45.00000000	   1694.03664338	   4755.43811162	     22.14885020	   -153.43949100	   2517.83076587	    154.93484418	     15.42564998	     15.09900298	     -0.89859810	     32.48326137	    -31.77557444	    -45.00000000	    -45.00000000	   3326.61788954	  -3881.58115470	     28.74732609	     59.06953017	   1070.67873075	     44.65327246	     13.54774009	    -23.18606025
      7.27000000	    -31.16733770	    -26.61908030	     32.04517897	    -67.77036674	    843.73797945	    -50.52570526	     26.63406909	    -45.00000000	     39.52054943	    -45.00000000	    -45.00000000	   1694.18048483	   4755.43288137	     22.20352198	   -153.82571206	   2517.83386351	    155.06981066	     15.38220859	     15.15802311	     -0.81494486	     32.48980441	    -31.88582147	    -45.00000000	    -45.00000000	   3326.58980000	  -3881.53882046	     28.81314735	     59.55332480	   1070.68408541	     44.53899021	     13.71119109	    -23.01230764
      7.28000000	    -31.03928645	    -26.79189155	     32.29724070	    -65.74346718	    843.66294852	    -50.43783420	     26.64224048	    -45.00000000	     39.60847762	    -45.00000000	    -45.00000000	   1694.31162796	   4755.39047769	     22.25023608	   -154.20168778	   2517.85446215	    155.20475073	     15.32031746	     15.23256010	     -0.76064696	     32.49082130	    -31.96551058	    -45.00000000	    -45.00000000	   3326.57129760	  -3881.43414795	     28.87762629	     59.96821672	   1070.64817705	     44.48906791	     13.85791359	    -22.82245146
